# Blender v2.93.1 OBJ File: ''
# www.blender.org
mtllib janela.mtl
o Text_Text.010
v 0.927231 0.771673 2.040532
v 0.927231 0.776497 2.041492
v 0.927231 0.778067 2.042234
v 0.989806 0.771673 2.040532
v 0.989806 0.776497 2.041492
v 0.989806 0.778067 2.042234
v 0.927231 0.735899 2.040532
v 0.926289 0.734226 2.040566
v 0.925288 0.732453 2.040655
v 0.924234 0.730589 2.040808
v 0.923130 0.728643 2.041018
v 0.921984 0.726626 2.041287
v 0.920802 0.724548 2.041613
v 0.919588 0.722419 2.041994
v 0.918349 0.720250 2.042430
v 0.917092 0.718053 2.042914
v 0.915823 0.715838 2.043451
v 0.914549 0.713617 2.044029
v 0.909524 0.704895 2.046750
v 0.910756 0.707029 2.046018
v 0.912009 0.709201 2.045317
v 0.913275 0.711401 2.044655
v 0.927231 0.776480 2.040532
v 0.927231 0.731091 2.040532
v 0.927231 0.774417 2.040532
v 0.927231 0.772354 2.040532
v 0.927231 0.770291 2.040532
v 0.927231 0.768228 2.040532
v 0.927231 0.766165 2.040532
v 0.927231 0.764102 2.040532
v 0.927231 0.762038 2.040532
v 0.927231 0.759975 2.040532
v 0.927231 0.757912 2.040532
v 0.927231 0.755849 2.040532
v 0.927231 0.753786 2.040532
v 0.927231 0.733154 2.040532
v 0.927231 0.735217 2.040532
v 0.927231 0.737281 2.040532
v 0.927231 0.739344 2.040532
v 0.927231 0.741407 2.040532
v 0.927231 0.743470 2.040532
v 0.927231 0.745533 2.040532
v 0.927231 0.747596 2.040532
v 0.927231 0.749660 2.040532
v 0.927231 0.751723 2.040532
v 0.989806 0.776480 2.040532
v 0.989806 0.731091 2.040532
v 0.989806 0.774417 2.040532
v 0.989806 0.772354 2.040532
v 0.989806 0.770291 2.040532
v 0.989806 0.768228 2.040532
v 0.989806 0.766165 2.040532
v 0.989806 0.764102 2.040532
v 0.989806 0.762038 2.040532
v 0.989806 0.759975 2.040532
v 0.989806 0.757912 2.040532
v 0.989806 0.755849 2.040532
v 0.989806 0.733154 2.040532
v 0.989806 0.735217 2.040532
v 0.989806 0.737281 2.040532
v 0.989806 0.739344 2.040532
v 0.989806 0.741407 2.040532
v 0.989806 0.743470 2.040532
v 0.989806 0.745533 2.040532
v 0.989806 0.747596 2.040532
v 0.989806 0.749660 2.040532
v 0.989806 0.751723 2.040532
v 0.989806 0.753786 2.040532
v 0.989806 0.735899 2.040532
v 0.990748 0.734226 2.040566
v 0.991749 0.732453 2.040655
v 0.992804 0.730589 2.040808
v 0.993907 0.728643 2.041018
v 0.995053 0.726626 2.041287
v 0.996236 0.724548 2.041613
v 0.997450 0.722419 2.041994
v 0.998688 0.720250 2.042430
v 0.999945 0.718053 2.042914
v 1.001214 0.715838 2.043451
v 1.007513 0.704895 2.046750
v 1.006281 0.707029 2.046018
v 1.005029 0.709201 2.045317
v 1.003763 0.711401 2.044655
v 1.002489 0.713617 2.044029
vt 0.446637 0.284952
vt 0.553363 0.284952
vt 0.553363 0.277548
vt 0.446637 0.277548
vt 0.446637 0.347452
vt 0.553363 0.347452
vt 0.553363 0.340048
vt 0.446637 0.340048
vt 0.553363 0.277523
vt 0.446637 0.277523
vt 0.446637 0.275105
vt 0.553363 0.275105
vt 0.446637 0.344275
vt 0.553363 0.344275
vt 0.446637 0.341097
vt 0.553363 0.341097
vt 0.446637 0.337920
vt 0.553363 0.337920
vt 0.446637 0.334742
vt 0.553363 0.334742
vt 0.446637 0.331565
vt 0.553363 0.331565
vt 0.446637 0.328387
vt 0.553363 0.328387
vt 0.446637 0.325210
vt 0.553363 0.325210
vt 0.446637 0.322032
vt 0.553363 0.322032
vt 0.446637 0.318855
vt 0.553363 0.318855
vt 0.446637 0.315677
vt 0.553363 0.315677
vt 0.446637 0.312500
vt 0.553363 0.312500
vt 0.446637 0.309323
vt 0.553363 0.309323
vt 0.446637 0.306145
vt 0.553363 0.306145
vt 0.446637 0.302968
vt 0.553363 0.302968
vt 0.446637 0.299790
vt 0.553363 0.299790
vt 0.446637 0.296613
vt 0.553363 0.296613
vt 0.446637 0.293435
vt 0.553363 0.293435
vt 0.446637 0.290258
vt 0.553363 0.290258
vt 0.446637 0.287080
vt 0.553363 0.287080
vt 0.446637 0.283903
vt 0.553363 0.283903
vt 0.446637 0.280725
vt 0.553363 0.280725
vt 0.590757 0.384359
vt 0.409243 0.384359
vt 0.413670 0.382098
vt 0.586330 0.382098
vt 0.417779 0.379803
vt 0.582221 0.379803
vt 0.421535 0.377487
vt 0.578465 0.377487
vt 0.425006 0.375000
vt 0.574994 0.375000
vt 0.427180 0.370944
vt 0.572820 0.370944
vt 0.429344 0.367533
vt 0.570656 0.367533
vt 0.431488 0.364148
vt 0.568512 0.364148
vt 0.433601 0.360809
vt 0.566399 0.360809
vt 0.435671 0.357530
vt 0.564329 0.357530
vt 0.437688 0.354329
vt 0.562312 0.354329
vt 0.439643 0.351223
vt 0.560357 0.351223
vt 0.441524 0.348226
vt 0.558476 0.348226
vt 0.443323 0.345356
vt 0.556677 0.345356
vt 0.554970 0.342625
vt 0.445030 0.342625
vn 0.0000 0.0000 1.0000
vn 0.0000 0.4271 -0.9042
vn 0.0000 0.0000 -1.0000
vn 0.0000 -0.3245 -0.9459
vn 0.0000 -0.3074 -0.9516
vn 0.0000 -0.2881 -0.9576
vn 0.0000 -0.2719 -0.9623
vn 0.0000 -0.2519 -0.9678
vn 0.0000 -0.2354 -0.9719
vn 0.0000 -0.2153 -0.9766
vn 0.0000 -0.1969 -0.9804
vn 0.0000 -0.1761 -0.9844
vn 0.0000 -0.1550 -0.9879
vn 0.0000 -0.1325 -0.9912
vn 0.0000 -0.1071 -0.9942
vn 0.0000 -0.0818 -0.9966
vn 0.0000 -0.0201 -0.9998
usemtl Material.022
s off
f 1/1/1 4/2/1 46/3/1 23/4/1
f 24/5/1 47/6/1 69/7/1 7/8/1
f 5/9/2 2/10/2 3/11/2 6/12/2
f 47/6/3 24/5/3 36/13/3 58/14/3
f 58/14/3 36/13/3 37/15/3 59/16/3
f 59/16/3 37/15/3 38/17/3 60/18/3
f 60/18/3 38/17/3 39/19/3 61/20/3
f 61/20/3 39/19/3 40/21/3 62/22/3
f 62/22/3 40/21/3 41/23/3 63/24/3
f 63/24/3 41/23/3 42/25/3 64/26/3
f 64/26/3 42/25/3 43/27/3 65/28/3
f 65/28/3 43/27/3 44/29/3 66/30/3
f 66/30/3 44/29/3 45/31/3 67/32/3
f 67/32/3 45/31/3 35/33/3 68/34/3
f 68/34/3 35/33/3 34/35/3 57/36/3
f 57/36/3 34/35/3 33/37/3 56/38/3
f 56/38/3 33/37/3 32/39/3 55/40/3
f 55/40/3 32/39/3 31/41/3 54/42/3
f 54/42/3 31/41/3 30/43/3 53/44/3
f 53/44/3 30/43/3 29/45/3 52/46/3
f 52/46/3 29/45/3 28/47/3 51/48/3
f 51/48/3 28/47/3 27/49/3 50/50/3
f 50/50/3 27/49/3 26/51/3 49/52/3
f 49/52/3 26/51/3 25/53/3 48/54/3
f 48/54/3 25/53/3 23/4/3 46/3/3
f 80/55/4 19/56/4 20/57/4 81/58/4
f 81/58/5 20/57/5 21/59/5 82/60/5
f 82/60/6 21/59/6 22/61/6 83/62/6
f 83/62/7 22/61/7 18/63/7 84/64/7
f 84/64/8 18/63/8 17/65/8 79/66/8
f 79/66/9 17/65/9 16/67/9 78/68/9
f 78/68/10 16/67/10 15/69/10 77/70/10
f 77/70/11 15/69/11 14/71/11 76/72/11
f 76/72/12 14/71/12 13/73/12 75/74/12
f 75/74/13 13/73/13 12/75/13 74/76/13
f 74/76/14 12/75/14 11/77/14 73/78/14
f 73/78/15 11/77/15 10/79/15 72/80/15
f 72/80/16 10/79/16 9/81/16 71/82/16
f 70/83/17 8/84/17 7/8/17 69/7/17
o Text.009_Text.016
v 1.074957 0.655752 -0.691741
v 1.074957 0.655752 0.418623
v 0.788837 1.704378 -0.753170
v 0.788837 1.704378 -0.219150
v 0.788837 1.704378 -1.784155
v 1.074957 0.655752 -2.146777
v 1.074957 0.655752 -1.109616
v 0.788837 1.704378 -1.103730
v -1.066729 0.577074 -2.261241
v 1.066729 0.577074 -2.261241
v -1.069245 0.558413 0.537086
v 1.069245 0.558413 0.537086
v -0.739691 1.775659 -1.846763
v 0.739691 1.775659 -1.846763
v -0.738143 1.771893 -0.200951
v 0.738143 1.771893 -0.200951
v -1.085541 0.616962 -1.069088
v -1.085541 0.616962 -2.182979
v -0.778253 1.743167 -1.062766
v -0.778253 1.743167 -1.793530
v -0.778253 1.743167 -0.245007
v -1.085541 0.616962 0.439950
v -1.085541 0.616962 -0.752561
v -0.778253 1.743167 -0.818534
v -1.000468 0.771673 2.040532
v -1.000468 0.776497 2.041492
v -1.000468 0.778067 2.042234
v -0.937893 0.771673 2.040532
v -0.937893 0.776497 2.041492
v -0.937893 0.778067 2.042234
v -1.000468 0.735899 2.040532
v -1.001410 0.734226 2.040566
v -1.002411 0.732453 2.040655
v -1.003465 0.730589 2.040808
v -1.004568 0.728643 2.041018
v -1.005714 0.726626 2.041287
v -1.006897 0.724548 2.041613
v -1.008111 0.722419 2.041994
v -1.009350 0.720250 2.042430
v -1.010607 0.718053 2.042914
v -1.011876 0.715838 2.043451
v -1.013150 0.713617 2.044029
v -1.018175 0.704895 2.046750
v -1.016943 0.707029 2.046018
v -1.015690 0.709201 2.045317
v -1.014424 0.711401 2.044655
v -1.000468 0.776480 2.040532
v -1.000468 0.731091 2.040532
v -1.000468 0.774417 2.040532
v -1.000468 0.772354 2.040532
v -1.000468 0.770291 2.040532
v -1.000468 0.768228 2.040532
v -1.000468 0.766165 2.040532
v -1.000468 0.764102 2.040532
v -1.000468 0.762038 2.040532
v -1.000468 0.759975 2.040532
v -1.000468 0.757912 2.040532
v -1.000468 0.755849 2.040532
v -1.000468 0.753786 2.040532
v -1.000468 0.733154 2.040532
v -1.000468 0.735217 2.040532
v -1.000468 0.737281 2.040532
v -1.000468 0.739344 2.040532
v -1.000468 0.741407 2.040532
v -1.000468 0.743470 2.040532
v -1.000468 0.745533 2.040532
v -1.000468 0.747596 2.040532
v -1.000468 0.749660 2.040532
v -1.000468 0.751723 2.040532
v -0.937893 0.776480 2.040532
v -0.937893 0.731091 2.040532
v -0.937893 0.774417 2.040532
v -0.937893 0.772354 2.040532
v -0.937893 0.770291 2.040532
v -0.937893 0.768228 2.040532
v -0.937893 0.766165 2.040532
v -0.937893 0.764102 2.040532
v -0.937893 0.762038 2.040532
v -0.937893 0.759975 2.040532
v -0.937893 0.757912 2.040532
v -0.937893 0.755849 2.040532
v -0.937893 0.733154 2.040532
v -0.937893 0.735217 2.040532
v -0.937893 0.737281 2.040532
v -0.937893 0.739344 2.040532
v -0.937893 0.741407 2.040532
v -0.937893 0.743470 2.040532
v -0.937893 0.745533 2.040532
v -0.937893 0.747596 2.040532
v -0.937893 0.749660 2.040532
v -0.937893 0.751723 2.040532
v -0.937893 0.753786 2.040532
v -0.937893 0.735899 2.040532
v -0.936950 0.734226 2.040566
v -0.935950 0.732453 2.040655
v -0.934895 0.730589 2.040808
v -0.933792 0.728643 2.041018
v -0.932646 0.726626 2.041287
v -0.931463 0.724548 2.041613
v -0.930249 0.722419 2.041994
v -0.929011 0.720250 2.042430
v -0.927754 0.718053 2.042914
v -0.926484 0.715838 2.043451
v -0.920186 0.704895 2.046750
v -0.921418 0.707029 2.046018
v -0.922670 0.709201 2.045317
v -0.923936 0.711401 2.044655
v -0.925210 0.713617 2.044029
vt 0.625000 0.490393
vt 0.625000 0.259607
vt 0.625000 0.261882
vt 0.625000 0.488118
vt 0.865457 0.658580
vt 0.634543 0.658580
vt 0.636895 0.658580
vt 0.863105 0.658580
vt 0.625000 0.552860
vt 0.625000 0.500000
vt 0.625000 0.500000
vt 0.625000 0.552860
vt 0.625000 0.658580
vt 0.625000 0.605720
vt 0.625000 0.605720
vt 0.625000 0.658580
vt 0.625000 0.144280
vt 0.625000 0.091420
vt 0.625000 0.091420
vt 0.625000 0.144280
vt 0.625000 0.250000
vt 0.625000 0.197140
vt 0.625000 0.197140
vt 0.625000 0.250000
vt 0.446637 0.284952
vt 0.553363 0.284952
vt 0.553363 0.277548
vt 0.446637 0.277548
vt 0.446637 0.347452
vt 0.553363 0.347452
vt 0.553363 0.340048
vt 0.446637 0.340048
vt 0.553363 0.277523
vt 0.446637 0.277523
vt 0.446637 0.275105
vt 0.553363 0.275105
vt 0.446637 0.344275
vt 0.553363 0.344275
vt 0.446637 0.341097
vt 0.553363 0.341097
vt 0.446637 0.337920
vt 0.553363 0.337920
vt 0.446637 0.334742
vt 0.553363 0.334742
vt 0.446637 0.331565
vt 0.553363 0.331565
vt 0.446637 0.328387
vt 0.553363 0.328387
vt 0.446637 0.325210
vt 0.553363 0.325210
vt 0.446637 0.322032
vt 0.553363 0.322032
vt 0.446637 0.318855
vt 0.553363 0.318855
vt 0.446637 0.315677
vt 0.553363 0.315677
vt 0.446637 0.312500
vt 0.553363 0.312500
vt 0.446637 0.309323
vt 0.553363 0.309323
vt 0.446637 0.306145
vt 0.553363 0.306145
vt 0.446637 0.302968
vt 0.553363 0.302968
vt 0.446637 0.299790
vt 0.553363 0.299790
vt 0.446637 0.296613
vt 0.553363 0.296613
vt 0.446637 0.293435
vt 0.553363 0.293435
vt 0.446637 0.290258
vt 0.553363 0.290258
vt 0.446637 0.287080
vt 0.553363 0.287080
vt 0.446637 0.283903
vt 0.553363 0.283903
vt 0.446637 0.280725
vt 0.553363 0.280725
vt 0.590757 0.384359
vt 0.409243 0.384359
vt 0.413670 0.382098
vt 0.586330 0.382098
vt 0.417779 0.379803
vt 0.582221 0.379803
vt 0.421535 0.377487
vt 0.578465 0.377487
vt 0.425006 0.375000
vt 0.574994 0.375000
vt 0.427180 0.370944
vt 0.572820 0.370944
vt 0.429344 0.367533
vt 0.570656 0.367533
vt 0.431488 0.364148
vt 0.568512 0.364148
vt 0.433601 0.360809
vt 0.566399 0.360809
vt 0.435671 0.357530
vt 0.564329 0.357530
vt 0.437688 0.354329
vt 0.562312 0.354329
vt 0.439643 0.351223
vt 0.560357 0.351223
vt 0.441524 0.348226
vt 0.558476 0.348226
vt 0.443323 0.345356
vt 0.556677 0.345356
vt 0.554970 0.342625
vt 0.445030 0.342625
vn 0.0000 0.3268 -0.9451
vn 0.0000 0.5196 0.8544
vn 0.9647 0.2632 0.0000
vn -0.9647 0.2632 -0.0000
vn 0.0000 0.0000 1.0000
vn 0.0000 0.4271 -0.9042
vn 0.0000 0.0000 -1.0000
vn 0.0000 -0.3245 -0.9459
vn 0.0000 -0.3074 -0.9516
vn 0.0000 -0.2881 -0.9576
vn 0.0000 -0.2719 -0.9623
vn 0.0000 -0.2519 -0.9678
vn 0.0000 -0.2354 -0.9719
vn 0.0000 -0.2153 -0.9766
vn 0.0000 -0.1969 -0.9804
vn 0.0000 -0.1761 -0.9844
vn 0.0000 -0.1550 -0.9879
vn 0.0000 -0.1325 -0.9912
vn 0.0000 -0.1071 -0.9942
vn 0.0000 -0.0818 -0.9966
vn 0.0000 -0.0201 -0.9998
usemtl blue.002
s off
f 94/85/18 93/86/18 97/87/18 98/88/18
f 95/89/19 96/90/19 100/91/19 99/92/19
f 91/93/20 90/94/20 89/95/20 92/96/20
f 86/97/20 85/98/20 87/99/20 88/100/20
f 107/101/21 106/102/21 105/103/21 108/104/21
f 102/105/21 101/106/21 103/107/21 104/108/21
f 109/109/22 112/110/22 154/111/22 131/112/22
f 132/113/22 155/114/22 177/115/22 115/116/22
f 113/117/23 110/118/23 111/119/23 114/120/23
f 155/114/24 132/113/24 144/121/24 166/122/24
f 166/122/24 144/121/24 145/123/24 167/124/24
f 167/124/24 145/123/24 146/125/24 168/126/24
f 168/126/24 146/125/24 147/127/24 169/128/24
f 169/128/24 147/127/24 148/129/24 170/130/24
f 170/130/24 148/129/24 149/131/24 171/132/24
f 171/132/24 149/131/24 150/133/24 172/134/24
f 172/134/24 150/133/24 151/135/24 173/136/24
f 173/136/24 151/135/24 152/137/24 174/138/24
f 174/138/24 152/137/24 153/139/24 175/140/24
f 175/140/24 153/139/24 143/141/24 176/142/24
f 176/142/24 143/141/24 142/143/24 165/144/24
f 165/144/24 142/143/24 141/145/24 164/146/24
f 164/146/24 141/145/24 140/147/24 163/148/24
f 163/148/24 140/147/24 139/149/24 162/150/24
f 162/150/24 139/149/24 138/151/24 161/152/24
f 161/152/24 138/151/24 137/153/24 160/154/24
f 160/154/24 137/153/24 136/155/24 159/156/24
f 159/156/24 136/155/24 135/157/24 158/158/24
f 158/158/24 135/157/24 134/159/24 157/160/24
f 157/160/24 134/159/24 133/161/24 156/162/24
f 156/162/24 133/161/24 131/112/24 154/111/24
f 188/163/25 127/164/25 128/165/25 189/166/25
f 189/166/26 128/165/26 129/167/26 190/168/26
f 190/168/27 129/167/27 130/169/27 191/170/27
f 191/170/28 130/169/28 126/171/28 192/172/28
f 192/172/29 126/171/29 125/173/29 187/174/29
f 187/174/30 125/173/30 124/175/30 186/176/30
f 186/176/31 124/175/31 123/177/31 185/178/31
f 185/178/32 123/177/32 122/179/32 184/180/32
f 184/180/33 122/179/33 121/181/33 183/182/33
f 183/182/34 121/181/34 120/183/34 182/184/34
f 182/184/35 120/183/35 119/185/35 181/186/35
f 181/186/36 119/185/36 118/187/36 180/188/36
f 180/188/37 118/187/37 117/189/37 179/190/37
f 178/191/38 116/192/38 115/116/38 177/115/38
